<svg height="300px" width="300px" fill="#000000" xmlns="http://www.w3.org/2000/svg" xmlns:xlink="http://www.w3.org/1999/xlink" xmlns:sketch="http://www.bohemiancoding.com/sketch/ns" viewBox="0 0 100 100" version="1.1" x="0px" y="0px"><title>bot3_open</title><desc>Created with Sketch.</desc><g stroke="none" stroke-width="1" fill="none" fill-rule="evenodd" sketch:type="MSPage"><g sketch:type="MSArtboardGroup" fill="#000000"><path d="M35,62 L35,62 C36.1045695,62 37,61.1045695 37,60 C37,58.8954305 36.1045695,58 35,58 C33.8954305,58 33,58.8954305 33,60 C33,61.1045695 33.8954305,62 35,62 L35,62 Z M35,66 C31.6862915,66 29,63.3137085 29,60 C29,56.6862915 31.6862915,54 35,54 C38.3137085,54 41,56.6862915 41,60 C41,63.3137085 38.3137085,66 35,66 Z M65,62 C66.1045695,62 67,61.1045695 67,60 C67,58.8954305 66.1045695,58 65,58 C63.8954305,58 63,58.8954305 63,60 C63,61.1045695 63.8954305,62 65,62 Z M65,66 L65,66 C61.6862915,66 59,63.3137085 59,60 C59,56.6862915 61.6862915,54 65,54 C68.3137085,54 71,56.6862915 71,60 C71,63.3137085 68.3137085,66 65,66 L65,66 Z" sketch:type="MSShapeGroup"/><path d="M50,20 C71.4336483,20 81.3822646,28.613774 86.0000023,36.6100918 L86,11.9417476 L86,10 L90,10 L90,11.9417476 L90,58.0582524 L90,59.0291262 L90,70 C90,70 90,90 50,90 C10,90 10,70 10,70 L10,59.0291262 L10,58.0582524 L10,11.9417476 L10,10 L14,10 L14,11.9417476 L14,36.6100878 C18.6177354,28.613774 28.5663517,20 50,20 Z M20,60 C20,51.7157288 26.7081139,45 35.0050808,45 L64.9949192,45 C73.2819965,45 80,51.7139073 80,60 C80,68.2842712 73.2918861,75 64.9949192,75 L35.0050808,75 C26.7180035,75 20,68.2860927 20,60 Z M14,10 C14,8.8954305 13.1045695,8 12,8 C10.8954305,8 10,8.8954305 10,10 L14,10 Z M90,10 C90,8.8954305 89.1045695,8 88,8 C86.8954305,8 86,8.8954305 86,10 L90,10 Z" sketch:type="MSShapeGroup"/></g></g></svg>